<?xml version="1.0" encoding="utf-8"?>
<!-- Generator: Adobe Illustrator 27.5.0, SVG Export Plug-In . SVG Version: 6.00 Build 0)  -->
<svg version="1.1" id="レイヤー_1" xmlns="http://www.w3.org/2000/svg" xmlns:xlink="http://www.w3.org/1999/xlink" x="0px"
	 y="0px" viewBox="0 0 423.9 540" style="enable-background:new 0 0 423.9 540;" xml:space="preserve">
<g>
	<path d="M304.7,85.9c-0.1-0.9-1.2-3.3-8.2-3.8c-7.1-0.5-11.1,0.7-18.2,0.7s-47.4,0-52.3,0s-9.8-1.9-12-5.2
		c-1.1-1.7-1.6-6.1-1.8-10.2c0-4.6,0-7.8-0.1-8.8c-0.2-6-3.5-7.9-10.3-10.1c-6.7-2.1-6.5-13.6-6.5-16.8s-0.3-7.8-3-7.8l-0.4,0.3
		l-0.4-0.3c-2.7,0-3,4.6-3,7.8s0.2,14.7-6.5,16.8c-6.7,2.1-10.1,4.1-10.3,10.1c-0.2,6,0,83.5,0,90.9c0,7.4-1.1,15.9,1.5,19.5
		c2.6,3.5,7.4,5,18.2,5v0h0.1h0.7h0.1v0c10.8,0,15.6-1.5,18.2-5c2.6-3.5,1.5-12.1,1.5-19.5c0-3.6,0.1-24.3,0.1-45
		c0.3-4.6,1-9.1,3.5-11.6c3.3-3.3,13.4-2.8,13.4-2.8s41.7,0,44.9,0s8.1,1,10.4,3.3c2.2,2.2,2.8,8,2.8,11c0,3,0,10.3,0,10.3v48.9
		c0,7.5-0.7,12.4-2.6,14.8c-1.9,2.4-6.7,3.6-10.8,3.6s-6.2,0-15.8,0c-9.6,0-35.4,0-40.1,0c-4.8,0-5.7,2.1-5.7,4.1
		c0,1.9,2.8,3.2,5.3,3.2s21.7,0,21.7,0s38.9,0,44.3,0c5.3,0,7.4-1.3,9-2.8c1.6-1.5,2.3-5.7,2.3-8.5c0-2.8,0-4.3,0-9.1
		c0-4.8,0-22.5,0-22.5s-0.1-37,0-42.3c0.1-5.3,1-9.8,5.4-12.5C304.7,88.8,304.9,86.8,304.7,85.9z M188.1,149.4
		c0,6.7-0.6,10.9-4.2,11.1v0c0,0-0.1,0-0.1,0c0,0-0.1,0-0.1,0v0c-3.6-0.2-4.2-4.4-4.2-11.1c0-6.8,0-71.5,0-78.1
		c0-6.2,1.4-9.5,4.1-9.5l0.3,0l0.3,0c2.7,0,4.1,3.2,4.1,9.5C188.1,78,188.1,142.6,188.1,149.4z M204.6,149.4
		c0,6.7-0.6,10.9-4.2,11.1v0c0,0-0.1,0-0.1,0c0,0-0.1,0-0.1,0v0c-3.6-0.2-4.2-4.4-4.2-11.1c0-6.8,0-71.5,0-78.1
		c0-6.2,1.4-9.5,4.1-9.5l0.3,0l0.3,0c2.6,0,4.1,3.2,4.1,9.5C204.6,78,204.6,142.6,204.6,149.4z"/>
	<path d="M259.1,115.3h-26.7c-6.2,0-11.3,5.1-11.3,11.3V151c0,6.2,5.1,11.3,11.3,11.3h26.7c6.2,0,11.3-5.1,11.3-11.3v-24.4
		C270.4,120.4,265.4,115.3,259.1,115.3z M262.8,142.7c0,6.3-5.2,11.5-11.5,11.5h-10.8c-6.3,0-11.5-5.2-11.5-11.5v-8.1
		c0-6.3,5.2-11.5,11.5-11.5h10.8c6.3,0,11.5,5.2,11.5,11.5V142.7z"/>
	<path d="M267.1,0H244c-6.2,0-11.3,5.1-11.3,11.3v51.6c0,6.2,5.1,11.3,11.3,11.3h23.2c6.2,0,11.3-5.1,11.3-11.3V11.3
		C278.4,5.1,273.3,0,267.1,0z M270.8,54.6c0,6.3-5.2,11.5-11.5,11.5H252c-6.3,0-11.5-5.2-11.5-11.5V19.3c0-6.3,5.2-11.5,11.5-11.5
		h7.3c6.3,0,11.5,5.2,11.5,11.5V54.6z"/>
	<path d="M288.1,273.8h-25.6h-1.7h-10.4c-5.5,0-10,4.5-10,10V322c0,5.5,4.5,10,10,10h12c5.5,0,10-4.5,10-10v-32
		c0.2-4.7,4-8.5,8.8-8.5h0.4c4.8,0,8.8,4,8.8,8.8v25.1c0,0.4-0.1,0.9-0.1,1.3c0,9.3,3.4,8.6,3.4,8.6h0.7c2.7,0,3.5-2.6,3.5-8.1
		v-33.4C298.1,278.3,293.6,273.8,288.1,273.8z M264.9,315.6c0,4.7-3.9,8.6-8.6,8.6s-8.6-3.9-8.6-8.6v-25.5c0-4.7,3.9-8.6,8.6-8.6
		s8.6,3.9,8.6,8.6V315.6z"/>
	<path d="M139.5,89.7c-3.2-2-7-0.2-9,2.5c-4,5.3-7.3,11.2-11.2,16.7c-3.2,4.5-29.9,41.3-33.4,46.4c-3.5,5-7.1,3.9-8.1,3.4
		c-1-0.5-2.5-2.4-2.5-6.7s0-10.3,0-10.3V97c0,0,0-40.8,0-45.7s-1.2-7.1-3.7-7.1l-0.1,0.2l-0.1-0.2c-2.5,0-3.7,2.1-3.7,7.1
		s0,45.7,0,45.7v44.6c0,0,0,5.9,0,10.3s-1.5,6.2-2.5,6.7c-1,0.5-4.5,1.7-8.1-3.4c-3.5-5-30.2-41.8-33.4-46.4
		c-3.9-5.5-7.2-11.3-11.2-16.7c-2-2.7-5.8-4.4-9-2.5c-3.6,2.3-2.9,7.4-2.7,11c1.6,26.2,0.9,52,0.9,78c0,10.9,0.1,21.8-0.1,32.7
		c-0.1,4.9-0.3,12,5.1,14.7c4.1,2.1,8.3,1,23.1,1c13.9,0,27.7-0.1,41.6-0.1h0.1c13.9,0,27.7,0.1,41.6,0.1c14.8,0,19,1.1,23.1-1
		c5.4-2.7,5.2-9.8,5.1-14.7c-0.3-10.9-0.1-21.8-0.1-32.7c0-26-0.7-51.8,0.9-78C142.4,97.1,143.1,91.9,139.5,89.7z M56.5,219.3
		c-11.3,0-29.8,0-35.9,0c-6.1,0-11.4-3.9-11.4-14c0-10,0.1-70.7,0.1-78c0-7.3-0.2-9.8,0.7-12c1-2.7,4.6-4.2,7.5-1.3l25.8,34.6
		c5.8,8,15.2,21.1,17.6,25.6c2.1,4,6,10.1,6.8,20.1c0,4.6,0,9.7,0,14.4C67.2,212.8,65.1,219.3,56.5,219.3z M122.5,219.3
		c-6.1,0-24.6,0-35.9,0c-8.6,0-10.7-6.5-11.2-10.6c0-4.7,0-9.7,0-14.4c0.8-9.9,4.7-16,6.8-20.1c2.4-4.6,11.8-17.7,17.6-25.6
		l25.8-34.6c2.9-2.9,6.4-1.4,7.5,1.3c0.9,2.3,0.7,4.7,0.7,12c0,7.3,0.1,68,0.1,78C133.8,215.4,128.5,219.3,122.5,219.3z"/>
	<g>
		<path d="M423.9,202c0-2.7-2.1-4.1-7.1-4.1c-2.9,0-18.4,0-30.6,0h-8h-0.1c-4.9,0-7.1-1.4-7.1-4.1l0-0.3l0,0c0-0.1,0-0.1,0-0.2
			l0-0.2h0c0.2-2.3,2.1-3.5,6.2-3.6h35.1c6.2,0,11.3-5.1,11.3-11.3v-18.5c0-6.2-5.1-11.3-11.3-11.3h-35.8c-2.7-0.2-5.6-0.8-7.2-2.2
			c-3.4-3.1-3.4-3.7-4.2-4.9c-0.7-1.2-1.7-2.2-3.5-2.2v0c0,0,0,0,0,0c0,0,0,0,0,0v0c-2,0-3,1.1-3.7,2.2c-0.7,1.2-0.8,1.8-4.2,4.9
			c-1.6,1.5-4.5,2-7.2,2.2h-18.5c-6.2,0-11.3,5.1-11.3,11.3v18.5c0,6.2,5.1,11.3,11.3,11.3h19.2c4.4,0.1,6.3,1.5,6.3,4l0,0.3l0,0
			c0,0.1,0,0.1,0,0.2l0,0.3h0c-0.3,2.4-2.4,3.6-7,3.6h-0.2h-4.7c0,0-6.7,0-15.1,0c-12.2,0-27.7,0-30.6,0c-4.7,0-6.8,1.2-7,3.7h0
			l0,0.2c0,0.1,0,0.1,0,0.2l0,0l0,0.3c0,2.7,2.1,4.1,7.1,4.1c2.9,0,18.4,0,30.6,0c8.3,0,15.1,0,15.1,0h29.5h15.1
			c12.2,0,27.7,0,30.6,0c4.6,0,6.8-1.2,7-3.6h0l0-0.3c0-0.1,0-0.1,0-0.2l0,0L423.9,202z M358.3,170.2c0,6.3-5.2,11.5-11.5,11.5
			h-10.7c-6.3,0-11.5-5.2-11.5-11.5v-2.6c0-6.3,5.2-11.5,11.5-11.5h10.7c6.3,0,11.5,5.2,11.5,11.5V170.2z M365.7,170.2v-2.6
			c0-6.3,5.2-11.5,11.5-11.5h27c6.3,0,11.5,5.2,11.5,11.5v2.6c0,6.3-5.2,11.5-11.5,11.5h-27C370.9,181.7,365.7,176.6,365.7,170.2z"
			/>
		<path d="M412.8,214.1h-85c-6.1,0-11.1,5-11.1,11.1v68.7c0,6.1,5,11.1,11.1,11.1h1.8c2,0.2,5.8,0.8,6.8,2.7
			c1.4,2.6,1.1,5.5-1.9,9.2c-3,3.8-6.9,7.7-8.7,10c-2.2,2.8-2.6,6.7-0.6,9.1c1.9,2.2,4.2,2.8,7,2.9c5.7,0.2,4.1-0.8,17.7-0.8
			c5,0,10.6-0.1,15.6-0.2c0.8,0,1.6,0,2.3,0c1.6,0,2.9,0,3.9,0c0.8,0,1.6,0,2.3,0c5,0,10.6,0.2,15.6,0.2c13.5,0,11.9,1,17.7,0.8
			c2.7-0.1,5.1-0.7,7-2.9c2.1-2.5,1.7-6.3-0.6-9.1c-1.9-2.3-5.7-6.3-8.7-10c-3-3.8-3.3-6.6-1.9-9.2c1-2,4.8-2.6,6.8-2.7h2.8
			c6.1,0,11.1-5,11.1-11.1v-68.7C423.8,219.1,418.8,214.1,412.8,214.1z M369.7,296.2c-2.7,0-4.9-2-4.9-4.4c0-2.4,2.2-4.4,4.9-4.4
			s4.9,2,4.9,4.4C374.5,294.2,372.4,296.2,369.7,296.2z M399.8,325.3c0,5.5-7.4,5.3-15.9,5.3c-2.4,0-5,0-7.6,0c0,0-6.3,0-13.1,0
			c-2.6,0-5.3,0-7.6,0c-8.5,0-15.9,0.2-15.9-5.3c0-5.4,9.2-18.6,24.8-20.3H375C390.5,306.7,399.8,319.9,399.8,325.3z M415.4,287.9
			c0,5.1-4.2,9.3-9.3,9.3h-4.3c-10.2-0.9-14.8-5.3-18.2-8.4c-3.7-3.4-7.4-13.3-14-13.4v0c0,0,0,0,0,0c0,0,0,0,0,0v0
			c-6.5,0.1-10.3,10-14,13.4c-3.4,3.2-7.9,7.6-18.2,8.4h-4c-5.1,0-9.3-4.2-9.3-9.3v-12.3c0.3-3.4,1.8-11.5,9.8-11.5
			c11.2,0,23.6,0,26.2,0c4.6,0,6.8-1.2,7-3.6h0l0-0.3c0-0.1,0-0.1,0-0.2l0,0l0-0.3c0-2.7-2.1-4.1-7.1-4.1c-2.4,0-13,0-23.3,0
			c-0.8,0-1.7-0.1-2.8-0.1c-8,0-9.5-8.1-9.8-11.5v-12.7c0-5.1,4.2-9.3,9.3-9.3h72.6c5.1,0,9.3,4.2,9.3,9.3V287.9z"/>
	</g>
	<path d="M255.4,390.9c0-2.5-2.1-3.7-7.1-3.7c-1,0-3.5,0-6.8,0c-3.8-0.2-6.5-0.8-9.6-3.3c-2.4-2-2.8-6.7-2.9-8.8c0-4,0-7,0-8.1
		c0-4.9-1.2-7.1-3.7-7.1l-0.1,0.2l-0.1-0.2c-2.5,0-3.7,2.1-3.7,7.1c0,1.1,0,4.1,0,8.1c-0.1,2.2-0.5,6.8-2.9,8.8
		c-2.7,2.2-5.1,3-8.2,3.2c-3.1-0.3-5.5-1-8.2-3.2c-2.5-2-2.8-6.9-2.9-9v-29.5c0-5.5-4.5-10-10-10h-20.5c-5.5,0-10,4.5-10,10v30.9
		c-0.2,2.4-0.8,5.9-2.8,7.6c-2.7,2.3-5.2,3-8.4,3.3h-23.2c-3.2-0.2-5.6-1-8.4-3.3c-2.4-2-2.8-6.7-2.9-8.8c0-4,0-7,0-8.1
		c0-4.9-1.2-7.1-3.7-7.1l-0.1,0.2l-0.1-0.2c-2.5,0-3.7,2.1-3.7,7.1c0,1.1,0,4.1,0,8.1c-0.1,2.2-0.5,6.8-2.9,8.8
		c-3.1,2.6-5.8,3.2-9.6,3.3c-2.5,0-4.4,0-5.2,0c-4.9,0-7.1,1.2-7.1,3.7L81,391l-0.2,0.1c0,2.5,2.1,3.7,7.1,3.7c0.8,0,2.5,0,4.8,0v0
		c4,0.1,6.8,0.7,9.9,3.3c1.9,1.6,2.5,4.8,2.8,7.1v76.8c0,6.1,5,11,11,11h101.8c6.1,0,11-5,11-11v-77.7c0.3-2.2,1-4.9,2.7-6.2
		c3.2-2.6,5.9-3.2,9.9-3.3v0c3.2,0,5.6,0,6.6,0c4.9,0,7.1-1.2,7.1-3.7l-0.2-0.1L255.4,390.9z M166.1,407.8l0.1,0.3
		c0,0-0.3-7.3,2.9-10c2.2-1.8,4.2-2.7,6.6-3h4v0.1c4,0.1,6.8,0.7,9.9,3.3c1.4,1.2,2.1,3.3,2.5,5.3v38.3c0,5.4-4.4,9.9-9.9,9.9H176
		c-5.4,0-9.9-4.4-9.9-9.9V407.8z M176,343.1h6.2c5.4,0,9.9,4.4,9.9,9.9v23.3c-0.2,2.4-0.8,5.9-2.8,7.5c-2.7,2.3-5.2,3-8.4,3.3h-3.6
		c-3.2-0.2-5.6-1-8.4-3.3c-2-1.7-2.6-5.1-2.8-7.5V353C166.1,347.6,170.6,343.1,176,343.1z M211.9,485h-89c-5.2,0-9.5-4.3-9.5-9.5
		v-70.9c0-0.4,0.1-0.8,0.1-1.2c0.2-1,0.5-2,0.9-3c0.2-0.4,0.4-0.7,0.6-1.1c0,0,0,0,0,0c0.2-0.3,0.4-0.5,0.7-0.8
		c0.1-0.1,0.2-0.2,0.3-0.3c2.1-1.7,4-2.6,6.2-3c0.2,0,0.4-0.1,0.7-0.1H146v0.1c4,0.1,6.8,0.7,9.9,3.3c3.2,2.6,2.9,10,2.9,10l0.1-0.2
		v41.4c0,5.5,4.5,10,10,10h20.5c5.5,0,10-4.5,10-10v-43.7c0.2-2.4,0.7-6.2,2.8-7.9c2.2-1.8,4.2-2.7,6.6-3h3.1c2.4,0.4,4.4,1.2,6.6,3
		c3.2,2.6,2.9,10,2.9,10l0-0.1v67.4C221.3,480.7,217.1,485,211.9,485z"/>
	<path d="M362.6,478.8c0,0-7.5-12.7-16.6-28.1c-0.2-0.5-0.4-0.9-0.7-1.4c-3.3-5.1-5-9.5-3.9-13c0.8-2.5,4.9-3.4,7.2-3.7h4.9
		c5.5,0,10-4.5,10-10v-61.9c0-5.5-4.5-10-10-10h-100c-5.5,0-10,4.5-10,10v61.9c0,5.5,4.5,10,10,10h4.8c2.3,0.3,6.4,1.2,7.2,3.7
		c1.1,3.4-0.6,7.9-3.9,13c-0.1,0.2-0.3,0.5-0.4,0.7c-9.3,15.7-17,28.8-17,28.8s-7.7,9.8-5.6,14.3c2,4.3,3.9,4.3,13.5,4.3
		c1.3,0,3.3,0,5.6,0c1.4,0,2.9,0,4.6,0c0.7,0,1.3,0,2,0c3.4,0.2,10.1,1.8,10.5,10.4V530c0,5.5,4.5,10,10,10h37c5.5,0,10-4.5,10-10
		v-23.5c0.9-7.5,7.1-8.9,10.4-9.1c0.7,0,1.4,0,2,0c1.6,0,3.2,0,4.6,0c2.5,0,4.5,0,5.9,0c9.6,0,11.5,0,13.5-4.3
		C370.3,488.6,362.6,478.8,362.6,478.8z M309.6,489.8L309.6,489.8l-5.3,0.1h-1.8H297l0-0.1c0,0-0.3,0.1-0.9,0.1h-1.4
		c-3.9-0.2-11.3-2-12.5-12.9v-34.4c0-5.4,4.4-9.9,9.9-9.9h22.7c5.4,0,9.9,4.4,9.9,9.9v31.8c-0.2,13.2-8.5,15.3-12.7,15.5h-1.4
		C310,489.9,309.6,489.8,309.6,489.8z M295.2,407.4c0,0,3.6-7.5,8.4-7.5c4.5,0,8.1,7.5,8.1,7.5s1.8,3,4.6,7.8
		c0.9,1.9,1.3,3.7,0.4,6.4c-0.8,2.2-3.9,2.9-6.4,3.2h-13.4c-2.5-0.3-5.6-1.1-6.4-3.2c-1.2-3.3-0.2-5.4,1-7.7
		C293.7,409.9,295.2,407.4,295.2,407.4z M250.9,414.9v-46.6c0-5.4,4.4-9.9,9.9-9.9h85.7c5.4,0,9.9,4.4,9.9,9.9v46.6
		c0,5.4-4.4,9.9-9.9,9.9h-5.8c-12.2-1.8-16.8-11.9-16.8-11.9s-0.1,0-0.2,0c-4.4-7.6-7.9-13.4-9.2-15.8c-5.3-9.2-6.6-12.4-10.6-12.8
		l0,0c-0.1,0-0.3,0-0.4,0c-0.1,0-0.3,0-0.4,0l0,0c-4,0.4-5.3,3.6-10.6,12.8c-1.3,2.3-4.8,8.2-9.2,15.8c0,0-0.1,0-0.1,0
		s-4.6,10.1-16.8,11.9h-5.6C255.3,424.8,250.9,420.4,250.9,414.9z M253.2,478.8c1.9-3.2,6.5-11,12-20.4c1.5-2.1,3.8-4.6,6-4.3
		c3.9,0.4,3.6,7.5,3.6,7.5l0-0.2v12.1c-0.1,0.2-0.1,0.3-0.1,0.3s0.1,0.5,0.1,1.3v2.9c-0.2,2.7-0.8,6.2-3.1,8.4
		c-3.7,3.6-11.2,3.5-12.9,3.4C256.3,489.5,247.8,487.9,253.2,478.8z M314.7,532.2H292c-5.4,0-9.9-4.4-9.9-9.9v-14.8
		c0.4-1.8,2.5-9.7,9.3-10l3.8-0.2c3.2,0,5.7,0,7.3,0c1.2,0,1.8,0,1.8,0c1.5,0,4,0,7,0l3.8,0.2c7.7,0.3,9.4,10.3,9.4,10.3l0.1,0.2
		v14.3C324.6,527.8,320.2,532.2,314.7,532.2z M348.1,489.8L348.1,489.8c0,0-9.1,0.7-13.2-3.4c-2-2-2.8-4.9-3-7.5v-4.7
		c0-0.2,0-0.4,0-0.4s0,0,0-0.1v-14.3l0.4,2.2c0,0-0.2-7.1,3.6-7.5c2-0.2,4,1.7,5.5,3.6c5.7,9.7,10.5,17.8,12.4,21.1
		C359,487.8,350.7,489.5,348.1,489.8z"/>
	<g>
		<g>
			<path d="M28.4,264.7l5.8,0.1c0.9,0,1.1,0.4,1.1,0.6c0,0.2-0.6,0.7-1.1,1v6.3h9.6v14.1h3.4v5.3H33.6c1.4,3.4,5.9,10.1,14.7,14.1
				c-1.3,0.9-2.7,2-4.3,4.4c-7.5-3.4-11.9-10-13.3-12.5c-3.7,6.5-8,9.4-14.8,12.5c-0.9-2.1-2.2-3.3-4-4.7
				c12-4.2,14.4-10.7,15.3-13.7H16.6v10.1h-5.1v-3H7.9v4.2H2.8v-34.8h13.7v18.2H19v-14.1h9.4V264.7z M11.4,281.2v-7.1H7.9v7.1H11.4z
				 M7.9,286.5v7.4h3.5v-7.4H7.9z M28.4,278.1h-3.8v8.8h3.7c0.1-0.8,0.1-2,0.1-2.8V278.1z M34.2,283.9c0,1.6-0.1,2.6-0.1,3h4.1v-8.8
				h-4V283.9z"/>
			<path d="M76.2,276.2h9.5v23.5H61.6v-23.5h9.3V272H51.3v-5.4h45.1v5.4H76.2V276.2z M88.6,303v-27.8l6,0.3c0.8,0,1.1,0.1,1.1,0.5
				c0,0.4-0.3,0.6-1.1,1v32.7h-6v-1.7H58.7v1.7h-5.9v-34.3l5.9,0.3c0.8,0,1.3,0.1,1.3,0.6c0,0.5-0.4,0.6-1.3,0.9V303H88.6z
				 M70.8,285.5v-4.5h-4v4.5H70.8z M66.8,290.1v4.9h4v-4.9H66.8z M80.5,285.5v-4.5h-4.3v4.5H80.5z M76.2,290.1v4.9h4.3v-4.9H76.2z"
				/>
			<path d="M106.1,303.8v-10.7h33.7v10.7h5.4v4.8h-44.7v-4.8H106.1z M121.6,273.3v5.6c2.1-2.5,5.1-8.1,6.6-14.1l5.8,1.9
				c0.5,0.1,0.7,0.4,0.7,0.7c0,0.7-1.3,0.8-1.7,0.8c-0.4,1.3-1,2.8-1.1,3.2h13.4v5.3h-15.8c-1.1,2.1-1.7,3.4-3.1,5.4
				c-1.7-1.2-2.8-1.8-4.8-2.3v4.7h-5.7v2.6h7.7v4.4H102v-24.8h21.6v4.3h-7.7v2.5H121.6z M111.1,273.3v-2.5h-3.9v2.5H111.1z
				 M107.2,277.2v3.1h9.4v-3.1H107.2z M107.2,284.3v2.6h3.9v-2.6H107.2z M115.7,303.8v-6.1h-4v6.1H115.7z M124.9,303.8v-6.1h-4.1
				v6.1H124.9z M142.9,289.1h-15.5v-5.4h15.5V289.1z M134.2,303.8v-6.1h-4.2v6.1H134.2z"/>
			<path d="M149.5,278.6v-4.2h8.7v-9.3l5.3,0.3c0.4,0,1,0.1,1,0.6c0,0.4-0.4,0.7-1,0.9v1.2h7.3v4.4h-7.3v1.9h9v4.2h-9v5.8
				c0,1.7-0.1,4.2-7.8,3.7c0-0.9-0.1-1.8-0.9-3.8c-1,1.7-1.3,2.1-2,3c-1.9-1.2-2.6-1.5-4.2-2c1.4-1.6,3.2-3.7,4.5-6.6H149.5z
				 M157,280.2c0.3,0.1,0.5,0.3,0.5,0.6c0,0.5-0.7,0.7-1.2,0.7c-0.2,0.6-0.6,1.3-1,1.9c3,0.1,3-0.1,3-1.1v-3.6h-4.6L157,280.2z
				 M161.6,308.3v1.7h-6v-20.9H189v20.9h-6.2v-1.7H161.6z M182.8,294.7v-1.8h-21.2v1.8H182.8z M182.8,299.5v-1.8h-21.2v1.8H182.8z
				 M182.8,304.5v-2h-21.2v2H182.8z M167.7,278.7c1.4,1.9,2.6,3.9,3.3,5.4c1.9-0.7,4.3-1.6,7.7-4.2c-1.1-1.3-3-3.6-4-5.8l4.1-2.7
				h-5.8v-5.1h18l2,1.9c-1.2,4.5-5.1,9.8-6.6,11.5c0.8,0.5,4.7,3.2,9.5,4.9c-1.8,1.3-2.3,1.8-4.1,4.5c-4.2-2-7.2-4.2-9.1-5.8
				c-4.4,3.4-6.4,4.3-7.6,4.9c-0.6-0.8-1.8-2.6-4.1-4.2c0.1,0.2,0.2,0.3,0.3,0.7c-2,0.9-2.4,1.1-4.2,2.2c-1-2.3-1.8-3.8-3.5-6.3
				L167.7,278.7z M179,271.4c1.1,2.3,2.8,4.1,3.5,4.9c0.4-0.5,2.2-2.5,3.3-4.9H179z"/>
		</g>
	</g>
	<g>
		<g>
			<path d="M11.1,244.5h1.6l-5.7,7.7v4.7H5.7v-4.7L0,244.5h1.6l4.8,6.1L11.1,244.5z"/>
			<path d="M16.6,244.5h8.3c0.6,0,1.1,0.2,1.5,0.6c0.4,0.4,0.6,0.9,0.6,1.5v10.3h-1.4v-4.5H16v4.5h-1.4v-10.3c0-0.6,0.2-1.1,0.6-1.5
				C15.6,244.7,16,244.5,16.6,244.5z M16,251h9.6v-4.4c0-0.2-0.1-0.3-0.2-0.5c-0.1-0.1-0.3-0.2-0.5-0.2h-8.3c-0.2,0-0.3,0.1-0.5,0.2
				c-0.1,0.1-0.2,0.3-0.2,0.5V251z"/>
			<path d="M35.9,250.6l5.1-6.1H43v12.4h-1.4v-10.8l-5.7,6.7l-5.7-6.7v10.8h-1.4v-12.4h1.9L35.9,250.6z"/>
			<path d="M46.9,244.5h8.3c0.6,0,1.1,0.2,1.5,0.6c0.4,0.4,0.6,0.9,0.6,1.5v10.3h-1.4v-4.5h-9.6v4.5h-1.4v-10.3
				c0-0.6,0.2-1.1,0.6-1.5S46.4,244.5,46.9,244.5z M46.3,251h9.6v-4.4c0-0.2-0.1-0.3-0.2-0.5c-0.1-0.1-0.3-0.2-0.5-0.2h-8.3
				c-0.2,0-0.3,0.1-0.5,0.2c-0.1,0.1-0.2,0.3-0.2,0.5V251z"/>
			<path d="M59.1,245.9v-1.4h12.4v1.9l-10.8,9.1h10.8v1.4H59.1V255l10.8-9.1H59.1z"/>
			<path d="M75.4,244.5h8.3c0.6,0,1.1,0.2,1.5,0.6c0.4,0.4,0.6,0.9,0.6,1.5v10.3h-1.4v-4.5h-9.6v4.5h-1.4v-10.3
				c0-0.6,0.2-1.1,0.6-1.5S74.8,244.5,75.4,244.5z M74.7,251h9.6v-4.4c0-0.2-0.1-0.3-0.2-0.5c-0.1-0.1-0.3-0.2-0.5-0.2h-8.3
				c-0.2,0-0.3,0.1-0.5,0.2c-0.1,0.1-0.2,0.3-0.2,0.5V251z"/>
			<path d="M97.7,244.5h1.8l-5.2,6.2l5.2,6.2h-1.8l-4.6-5.5h-4v5.5h-1.4v-12.4h1.4v5.5h4L97.7,244.5z"/>
			<path d="M101.4,256.9v-12.4h1.4v12.4H101.4z"/>
			<path d="M109.2,244.5h12.4v1.4h-5.5v11h-1.4v-11h-5.5V244.5z"/>
			<path d="M125,244.5h8.3c0.6,0,1.1,0.2,1.5,0.6c0.4,0.4,0.6,0.9,0.6,1.5v10.3h-1.4v-4.5h-9.6v4.5h-1.4v-10.3
				c0-0.6,0.2-1.1,0.6-1.5S124.4,244.5,125,244.5z M124.3,251h9.6v-4.4c0-0.2-0.1-0.3-0.2-0.5c-0.1-0.1-0.3-0.2-0.5-0.2H125
				c-0.2,0-0.3,0.1-0.5,0.2c-0.1,0.1-0.2,0.3-0.2,0.5V251z"/>
			<path d="M147.3,244.5h1.8l-5.2,6.2l5.2,6.2h-1.8l-4.6-5.5h-4v5.5h-1.4v-12.4h1.4v5.5h4L147.3,244.5z"/>
			<path d="M153.1,244.5h8.3c0.6,0,1.1,0.2,1.5,0.6c0.4,0.4,0.6,0.9,0.6,1.5v10.3H162v-4.5h-9.6v4.5H151v-10.3
				c0-0.6,0.2-1.1,0.6-1.5S152.5,244.5,153.1,244.5z M152.4,251h9.6v-4.4c0-0.2-0.1-0.3-0.2-0.5c-0.1-0.1-0.3-0.2-0.5-0.2h-8.3
				c-0.2,0-0.3,0.1-0.5,0.2c-0.1,0.1-0.2,0.3-0.2,0.5V251z"/>
			<path d="M177.6,246.6v0.5h-1.4v-0.5c0-0.2-0.1-0.3-0.2-0.5c-0.1-0.1-0.3-0.2-0.5-0.2h-8.3c-0.2,0-0.3,0.1-0.5,0.2
				c-0.1,0.1-0.2,0.3-0.2,0.5v2.8c0,0.2,0.1,0.3,0.2,0.5c0.1,0.1,0.3,0.2,0.5,0.2h8.3c0.6,0,1.1,0.2,1.5,0.6s0.6,0.9,0.6,1.5v2.8
				c0,0.6-0.2,1.1-0.6,1.5c-0.4,0.4-0.9,0.6-1.5,0.6h-8.3c-0.6,0-1.1-0.2-1.5-0.6c-0.4-0.4-0.6-0.9-0.6-1.5v-0.5h1.4v0.5
				c0,0.2,0.1,0.3,0.2,0.5c0.1,0.1,0.3,0.2,0.5,0.2h8.3c0.2,0,0.3-0.1,0.5-0.2c0.1-0.1,0.2-0.3,0.2-0.5V252c0-0.2-0.1-0.3-0.2-0.5
				c-0.1-0.1-0.3-0.2-0.5-0.2h-8.3c-0.6,0-1.1-0.2-1.5-0.6s-0.6-0.9-0.6-1.5v-2.8c0-0.6,0.2-1.1,0.6-1.5s0.9-0.6,1.5-0.6h8.3
				c0.6,0,1.1,0.2,1.5,0.6S177.6,246,177.6,246.6z"/>
			<path d="M190.7,244.5h1.4v12.4h-1.4v-5.5h-9.9v5.5h-1.4v-12.4h1.4v5.5h9.9V244.5z"/>
			<path d="M194.1,256.9v-12.4h1.4v12.4H194.1z"/>
		</g>
	</g>
</g>
</svg>
